<svg width="776" height="775" viewBox="0 0 776 775" xmlns="http://www.w3.org/2000/svg" xmlns:xlink="http://www.w3.org/1999/xlink"><title>gw-mini+mark copy</title><defs><path d="M384.54.294C172.943.294.843 171.2.843 383.427c0 211.286 172.1 383.132 383.7 383.132 211.597 0 383.698-171.847 383.698-383.133C769.18 171.2 597.08.294 384.54.294zm0 57.282c179.625 0 326.333 149.31 326.333 329.607 0 36.623-6.583 79.82-16.928 107.99H75.137c-11.285-28.17-16.928-71.367-16.928-107.99 0-180.298 146.707-329.607 326.33-329.607z" id="b"/><filter x="-50%" y="-50%" width="200%" height="200%" filterUnits="objectBoundingBox" id="a"><feOffset dy="2" in="SourceAlpha" result="shadowOffsetOuter1"/><feGaussianBlur stdDeviation="2" in="shadowOffsetOuter1" result="shadowBlurOuter1"/><feColorMatrix values="0 0 0 0 0 0 0 0 0 0 0 0 0 0 0 0 0 0 0.5 0" in="shadowBlurOuter1"/></filter><path id="d" d="M384.54 187.165L255.7 409.72h257.68z"/><filter x="-50%" y="-50%" width="200%" height="200%" filterUnits="objectBoundingBox" id="c"><feOffset dy="2" in="SourceAlpha" result="shadowOffsetOuter1"/><feGaussianBlur stdDeviation="2" in="shadowOffsetOuter1" result="shadowBlurOuter1"/><feColorMatrix values="0 0 0 0 0 0 0 0 0 0 0 0 0 0 0 0 0 0 0.5 0" in="shadowBlurOuter1"/></filter></defs><g fill="none" fill-rule="evenodd" opacity=".1"><g transform="translate(3.243 2.03)"><use fill="#000" filter="url(#a)" xlink:href="#b"/><use fill="#FFF" xlink:href="#b"/><use fill="#FFF" xlink:href="#b"/></g><g transform="translate(3.243 2.03)"><use fill="#000" filter="url(#c)" xlink:href="#d"/><use fill="#FFF" xlink:href="#d"/><use fill="#FFF" xlink:href="#d"/></g></g></svg>
